<?xml version="1.0" encoding="UTF-8" standalone="no"?>
<!-- Generator: Adobe Illustrator 17.0.1, SVG Export Plug-In . SVG Version: 6.00 Build 0)  -->

<svg
   xmlns:osb="http://www.openswatchbook.org/uri/2009/osb"
   xmlns:dc="http://purl.org/dc/elements/1.1/"
   xmlns:cc="http://creativecommons.org/ns#"
   xmlns:rdf="http://www.w3.org/1999/02/22-rdf-syntax-ns#"
   xmlns:svg="http://www.w3.org/2000/svg"
   xmlns="http://www.w3.org/2000/svg"
   xmlns:xlink="http://www.w3.org/1999/xlink"
   xmlns:sodipodi="http://sodipodi.sourceforge.net/DTD/sodipodi-0.dtd"
   xmlns:inkscape="http://www.inkscape.org/namespaces/inkscape"
   version="1.1"
   x="0px"
   y="0px"
   width="86px"
   height="86px"
   viewBox="0 0 86 86"
   enable-background="new 0 0 86 86"
   xml:space="preserve"
   id="svg3432"
   inkscape:version="0.91 r13725"
   sodipodi:docname="icon.svg"
   inkscape:export-filename="/home/greg/dev/sailfishos/harbour-wallaread/icons/256x256/harbour-wallaread.png"
   inkscape:export-xdpi="267.91"
   inkscape:export-ydpi="267.91"><metadata
     id="metadata3457"><rdf:RDF><cc:Work
         rdf:about=""><dc:format>image/svg+xml</dc:format><dc:type
           rdf:resource="http://purl.org/dc/dcmitype/StillImage" /><dc:title></dc:title></cc:Work></rdf:RDF></metadata><defs
     id="defs3455"><linearGradient
       y2="0.7169"
       x2="85.2831"
       y1="85.2831"
       x1="0.7169"
       gradientUnits="userSpaceOnUse"
       id="SVGID_1_"
       osb:paint="gradient"><stop
         id="stop3437"
         style="stop-color:#2780e3;stop-opacity:1"
         offset="0" /><stop
         id="stop3439"
         style="stop-color:#13b94f;stop-opacity:1"
         offset="1" /></linearGradient><linearGradient
       inkscape:collect="always"
       xlink:href="#SVGID_1_"
       id="linearGradient4443"
       gradientUnits="userSpaceOnUse"
       x1="0.7169"
       y1="85.2831"
       x2="85.2831"
       y2="0.7169" /></defs><sodipodi:namedview
     pagecolor="#ffffff"
     bordercolor="#666666"
     borderopacity="1"
     objecttolerance="10"
     gridtolerance="10"
     guidetolerance="10"
     inkscape:pageopacity="0"
     inkscape:pageshadow="2"
     inkscape:window-width="1920"
     inkscape:window-height="1015"
     id="namedview3453"
     showgrid="false"
     inkscape:zoom="4.7674419"
     inkscape:cx="-44.081004"
     inkscape:cy="36.410749"
     inkscape:window-x="0"
     inkscape:window-y="0"
     inkscape:window-maximized="1"
     inkscape:current-layer="svg3432" /><g
     id="Layer_2"
     display="none" /><path
     inkscape:connector-curvature="0"
     style="fill:url(#linearGradient4443);fill-opacity:1"
     id="path3441"
     d="M 84.277,0.3 43,0.3 C 19.417,0.3 0.3,19.418 0.3,43 l 0,41.277 c 0,0.786 0.637,1.423 1.423,1.423 L 43,85.7 C 66.583,85.7 85.7,66.582 85.7,43 l 0,-41.277 C 85.7,0.937 85.063,0.3 84.277,0.3 Z" /><path
     style="fill:#ffffff;fill-opacity:0.39351855"
     d="M 43 0.30078125 C 34.401512 0.30078125 26.402138 2.8499483 19.701172 7.2226562 C 26.776212 5.4713113 37.88411 4.8625733 52.388672 10.849609 C 67.233427 16.976408 78.621302 16.122603 85.699219 14.255859 L 85.699219 1.7226562 C 85.699219 0.93665625 85.063344 0.30078125 84.277344 0.30078125 L 43 0.30078125 z M 0.30078125 67.962891 L 0.30078125 84.277344 C 0.30078125 85.063344 0.9366563 85.699219 1.7226562 85.699219 L 43 85.699219 C 56.930416 85.699219 69.299608 79.026203 77.09375 68.705078 C 69.311475 72.297711 55.382494 74.697266 39.453125 74.697266 C 22.452043 74.697266 7.6972437 71.965673 0.30078125 67.962891 z "
     id="path3585" /><path
     style="fill:#ffffff;fill-opacity:1"
     id="path3589"
     d="m 63.981005,22.382292 c -1.488,0 -2.725,0.448 -3.671,1.333 -0.957,0.896 -1.441,1.93 -1.441,3.073 l 0,20.24 c 0,2.717 -0.481,4.718 -1.431,5.952 -0.918,1.193 -2.384,1.773 -4.482,1.773 -2.146,0 -3.609,-0.576 -4.473,-1.759 -0.903,-1.235 -1.36,-3.241 -1.36,-5.965 l 0,-20.321 c 0,-1.384 -0.63,-2.516 -1.825,-3.273 -1.624,-1.023 -3.24,-1.394 -5.206,-0.74 -0.6,0.201 -1.164,0.461 -1.679,0.776 -0.548,0.333 -1.011,0.752 -1.378,1.241 -0.406,0.544 -0.612,1.136 -0.612,1.759 l 0,20.556 c 0,2.721 -0.457,4.728 -1.36,5.964 -0.867,1.185 -2.33,1.761 -4.473,1.761 -2.149,0 -3.627,-0.579 -4.518,-1.766 -0.926,-1.235 -1.396,-3.24 -1.396,-5.958 l 0,-20.24 c 0,-1.144 -0.484,-2.178 -1.443,-3.073 -0.947,-0.884 -2.208,-1.333 -3.748,-1.333 -1.586,0 -2.895,0.444 -3.89,1.317 -1.021,0.896 -1.54,1.936 -1.54,3.089 l 0,19.925 c 0,2.506 0.245,4.877 0.726,7.044 0.494,2.215 1.357,4.16 2.565,5.781 1.22,1.637 2.876,2.929 4.923,3.845 2.026,0.902 4.56,1.36 7.532,1.36 3.097,0 5.691,-0.575 7.709,-1.706 1.692,-0.95 3.117,-2.199 4.249,-3.721 1.092,1.522 2.484,2.771 4.153,3.719 1.991,1.133 4.626,1.708 7.829,1.708 2.973,0 5.495,-0.459 7.498,-1.363 2.018,-0.915 3.659,-2.207 4.881,-3.842 1.21,-1.626 2.073,-3.571 2.564,-5.781 0.481,-2.167 0.726,-4.538 0.726,-7.044 l 0,-19.926 c 0,-1.148 -0.503,-2.185 -1.491,-3.082 -0.971,-0.878 -2.296,-1.323 -3.938,-1.323 z"
     inkscape:connector-curvature="0" /><g
     style="fill:#ffff00;fill-opacity:1"
     id="g3591"
     transform="translate(-67.216995,-40.946708)"><path
       style="fill:#ffff00;fill-opacity:1"
       id="path3593"
       d="m 40.224,210.632 c -0.662,0 -1.211,0.198 -1.631,0.59 -0.424,0.399 -0.64,0.858 -0.64,1.366 l 0,8.989 c 0,1.206 -0.214,2.097 -0.636,2.644 -0.406,0.53 -1.059,0.788 -1.99,0.788 -0.955,0 -1.604,-0.256 -1.987,-0.783 -0.401,-0.546 -0.604,-1.439 -0.604,-2.648 l 0,-9.025 c 0,-0.615 -0.28,-1.118 -0.81,-1.453 -0.721,-0.456 -1.439,-0.621 -2.312,-0.33 -0.266,0.092 -0.518,0.206 -0.747,0.347 -0.243,0.147 -0.449,0.332 -0.611,0.55 -0.181,0.241 -0.272,0.505 -0.272,0.782 l 0,9.13 c 0,1.209 -0.203,2.1 -0.604,2.648 -0.386,0.527 -1.036,0.783 -1.988,0.783 -0.954,0 -1.61,-0.258 -2.006,-0.785 -0.411,-0.547 -0.62,-1.44 -0.62,-2.646 l 0,-8.989 c 0,-0.508 -0.215,-0.967 -0.641,-1.366 -0.421,-0.392 -0.98,-0.59 -1.665,-0.59 -0.704,0 -1.287,0.195 -1.728,0.582 -0.454,0.398 -0.684,0.86 -0.684,1.374 l 0,8.851 c 0,1.111 0.108,2.166 0.323,3.128 0.218,0.983 0.601,1.849 1.139,2.568 0.542,0.728 1.277,1.302 2.188,1.708 0.9,0.401 2.024,0.604 3.345,0.604 1.375,0 2.528,-0.256 3.425,-0.759 0.751,-0.422 1.384,-0.977 1.887,-1.652 0.485,0.676 1.103,1.23 1.844,1.65 0.885,0.505 2.055,0.761 3.478,0.761 1.319,0 2.44,-0.205 3.33,-0.606 0.896,-0.407 1.625,-0.981 2.168,-1.706 0.538,-0.723 0.921,-1.588 1.139,-2.568 0.213,-0.962 0.322,-2.017 0.322,-3.128 l 0,-8.851 c 0,-0.511 -0.223,-0.97 -0.662,-1.368 -0.433,-0.395 -1.022,-0.59 -1.75,-0.59 z"
       inkscape:connector-curvature="0" /><path
       style="fill:#ffff00;fill-opacity:1"
       id="path3595"
       d="m 66.316,212.703 c -0.624,-0.648 -1.434,-1.163 -2.406,-1.527 -0.965,-0.362 -2.121,-0.544 -3.433,-0.544 -1.415,0 -2.671,0.25 -3.735,0.744 -1.062,0.495 -1.956,1.15 -2.656,1.951 -0.7,0.793 -1.238,1.699 -1.598,2.686 -0.361,0.989 -0.544,2 -0.544,3.011 l 0,3.079 c 0,0.915 0.14,1.818 0.416,2.684 0.28,0.873 0.707,1.662 1.264,2.343 0.563,0.685 1.292,1.247 2.168,1.673 0.88,0.429 1.915,0.646 3.076,0.646 0.718,0 1.334,-0.058 1.833,-0.164 0.505,-0.113 0.954,-0.277 1.328,-0.489 0.375,-0.212 0.7,-0.462 0.965,-0.739 0.158,-0.165 0.312,-0.343 0.459,-0.532 l 0,0.142 c 0,0.509 0.216,0.968 0.64,1.366 0.42,0.393 0.968,0.59 1.63,0.59 0.729,0 1.318,-0.197 1.75,-0.587 0.439,-0.399 0.662,-0.86 0.662,-1.369 l 0,-9.794 c 0,-1.034 -0.147,-1.994 -0.436,-2.863 -0.293,-0.884 -0.758,-1.658 -1.383,-2.307 z m -7.354,2.67 c 0.447,-0.203 0.956,-0.306 1.515,-0.306 0.969,0 1.719,0.217 2.231,0.646 0.494,0.412 0.746,1.162 0.746,2.228 l 0,3.288 c 0,0.628 -0.108,1.184 -0.323,1.652 -0.214,0.473 -0.496,0.869 -0.835,1.177 -0.341,0.307 -0.736,0.546 -1.174,0.706 -0.441,0.162 -0.905,0.244 -1.379,0.244 -0.857,0 -1.554,-0.27 -2.127,-0.824 -0.571,-0.55 -0.849,-1.184 -0.849,-1.941 l 0,-3.359 c 0,-0.517 0.092,-1.008 0.274,-1.456 0.183,-0.453 0.44,-0.863 0.764,-1.22 0.317,-0.349 0.707,-0.633 1.157,-0.835 z"
       inkscape:connector-curvature="0" /><path
       style="fill:#ffff00;fill-opacity:1"
       id="path3597"
       d="m 80.556,204.685 c -0.704,0 -1.286,0.195 -1.728,0.586 -0.454,0.397 -0.684,0.859 -0.684,1.37 l 0,20.849 c 0,0.511 0.23,0.973 0.684,1.373 0.442,0.388 1.024,0.585 1.728,0.585 0.685,0 1.245,-0.2 1.666,-0.593 0.424,-0.399 0.642,-0.857 0.642,-1.365 l 0,-20.849 c 0,-0.508 -0.217,-0.967 -0.642,-1.365 -0.421,-0.393 -0.981,-0.591 -1.666,-0.591 z"
       inkscape:connector-curvature="0" /><path
       style="fill:#ffff00;fill-opacity:1"
       id="path3599"
       d="m 95.493,204.685 c -0.704,0 -1.286,0.195 -1.728,0.586 -0.453,0.397 -0.684,0.859 -0.684,1.37 l 0,20.849 c 0,0.511 0.23,0.973 0.684,1.373 0.442,0.388 1.024,0.585 1.728,0.585 0.685,0 1.246,-0.2 1.666,-0.593 0.425,-0.399 0.642,-0.857 0.642,-1.365 l 0,-20.849 c 0,-0.508 -0.217,-0.967 -0.642,-1.365 -0.421,-0.393 -0.981,-0.591 -1.666,-0.591 z"
       inkscape:connector-curvature="0" /><path
       style="fill:#ffff00;fill-opacity:1"
       id="path3601"
       d="m 121.726,212.703 c -0.624,-0.648 -1.434,-1.163 -2.405,-1.527 -0.968,-0.362 -2.122,-0.544 -3.435,-0.544 -1.414,0 -2.671,0.25 -3.733,0.744 -1.062,0.495 -1.956,1.15 -2.658,1.951 -0.697,0.793 -1.234,1.696 -1.597,2.686 -0.36,0.989 -0.544,2 -0.544,3.011 l 0,3.079 c 0,0.912 0.14,1.816 0.417,2.684 0.279,0.873 0.703,1.662 1.264,2.343 0.562,0.685 1.292,1.247 2.168,1.673 0.88,0.429 1.915,0.646 3.076,0.646 0.718,0 1.334,-0.058 1.833,-0.164 0.506,-0.113 0.953,-0.277 1.328,-0.489 0.374,-0.212 0.697,-0.462 0.964,-0.739 0.158,-0.165 0.312,-0.343 0.459,-0.532 l 0,0.142 c 0,0.509 0.216,0.968 0.642,1.366 0.419,0.393 0.969,0.59 1.63,0.59 0.729,0 1.317,-0.197 1.75,-0.587 0.438,-0.399 0.661,-0.86 0.661,-1.369 l 0,-9.794 c 0,-1.034 -0.146,-1.994 -0.436,-2.863 -0.294,-0.881 -0.759,-1.656 -1.384,-2.307 z m -7.355,2.67 c 0.446,-0.203 0.956,-0.306 1.515,-0.306 0.969,0 1.719,0.217 2.23,0.646 0.495,0.412 0.746,1.162 0.746,2.228 l 0,3.288 c 0,0.625 -0.108,1.184 -0.321,1.652 -0.214,0.473 -0.495,0.869 -0.835,1.177 -0.341,0.307 -0.735,0.546 -1.174,0.706 -0.441,0.162 -0.906,0.244 -1.381,0.244 -0.856,0 -1.552,-0.27 -2.126,-0.824 -0.571,-0.55 -0.85,-1.184 -0.85,-1.941 l 0,-3.359 c 0,-0.517 0.093,-1.008 0.276,-1.456 0.18,-0.453 0.437,-0.863 0.762,-1.22 0.32,-0.349 0.71,-0.633 1.158,-0.835 z"
       inkscape:connector-curvature="0" /><path
       style="fill:#ffff00;fill-opacity:1"
       id="path3603"
       d="m 147.924,213.071 c -0.634,-0.77 -1.449,-1.377 -2.422,-1.803 -0.973,-0.422 -2.132,-0.637 -3.45,-0.637 -0.925,0 -1.769,0.168 -2.506,0.497 -0.578,0.261 -1.087,0.612 -1.519,1.05 l 0,-5.538 c 0,-0.508 -0.216,-0.967 -0.642,-1.365 -0.42,-0.393 -0.98,-0.591 -1.665,-0.591 -0.704,0 -1.285,0.195 -1.728,0.586 -0.453,0.397 -0.685,0.859 -0.685,1.37 l 0,15.566 c 0,1.038 0.18,2.014 0.53,2.895 0.354,0.891 0.891,1.679 1.6,2.338 0.705,0.653 1.594,1.17 2.647,1.536 1.039,0.356 2.269,0.541 3.652,0.541 1.344,0 2.533,-0.229 3.538,-0.674 1.003,-0.45 1.857,-1.062 2.536,-1.829 0.681,-0.764 1.189,-1.659 1.516,-2.664 0.324,-0.995 0.489,-2.068 0.489,-3.191 l 0,-2.03 c 0,-1.211 -0.16,-2.344 -0.47,-3.362 -0.311,-1.025 -0.788,-1.931 -1.421,-2.695 z m -6.186,12.006 c -1.076,0 -1.986,-0.23 -2.7,-0.685 -0.681,-0.433 -1.011,-1.104 -1.011,-2.046 l 0,-4.011 c 0.043,-1.137 0.376,-1.974 0.988,-2.482 0.629,-0.522 1.426,-0.786 2.372,-0.786 1.112,0 1.982,0.341 2.661,1.042 0.673,0.694 1.017,1.735 1.017,3.09 l 0,2.099 c 0,1.151 -0.311,2.081 -0.921,2.766 -0.606,0.684 -1.394,1.013 -2.406,1.013 z"
       inkscape:connector-curvature="0" /><path
       style="fill:#ffff00;fill-opacity:1"
       id="path3605"
       d="m 172.868,212.703 c -0.623,-0.648 -1.433,-1.163 -2.405,-1.527 -0.968,-0.362 -2.121,-0.544 -3.435,-0.544 -1.415,0 -2.67,0.25 -3.735,0.744 -1.061,0.495 -1.953,1.15 -2.656,1.951 -0.697,0.793 -1.235,1.696 -1.596,2.686 -0.362,0.989 -0.544,2 -0.544,3.011 l 0,3.079 c 0,0.912 0.141,1.816 0.415,2.684 0.28,0.873 0.706,1.662 1.264,2.343 0.562,0.685 1.293,1.247 2.169,1.673 0.88,0.429 1.915,0.646 3.074,0.646 0.721,0 1.335,-0.058 1.835,-0.164 0.506,-0.113 0.953,-0.277 1.329,-0.489 0.374,-0.212 0.698,-0.462 0.962,-0.739 0.159,-0.165 0.312,-0.343 0.459,-0.532 l 0,0.142 c 0,0.509 0.217,0.968 0.642,1.366 0.421,0.393 0.968,0.59 1.63,0.59 0.73,0 1.318,-0.197 1.75,-0.587 0.439,-0.399 0.661,-0.86 0.661,-1.369 l 0,-9.794 c 0,-1.034 -0.146,-1.994 -0.434,-2.863 -0.294,-0.881 -0.758,-1.656 -1.385,-2.307 z m -7.355,2.67 c 0.447,-0.203 0.959,-0.306 1.516,-0.306 0.97,0 1.72,0.217 2.23,0.646 0.495,0.412 0.745,1.162 0.745,2.228 l 0,3.288 c 0,0.625 -0.108,1.184 -0.321,1.652 -0.215,0.473 -0.494,0.869 -0.836,1.177 -0.34,0.307 -0.736,0.546 -1.172,0.706 -0.442,0.162 -0.907,0.244 -1.38,0.244 -0.856,0 -1.552,-0.27 -2.128,-0.824 -0.572,-0.55 -0.85,-1.184 -0.85,-1.941 l 0,-3.359 c 0,-0.517 0.094,-1.008 0.274,-1.456 0.185,-0.453 0.44,-0.863 0.764,-1.22 0.32,-0.349 0.709,-0.633 1.158,-0.835 z"
       inkscape:connector-curvature="0" /><path
       style="fill:#ffff00;fill-opacity:1"
       id="path3607"
       d="m 199.508,214.828 c -0.294,-0.856 -0.762,-1.609 -1.388,-2.234 -0.623,-0.624 -1.431,-1.119 -2.406,-1.473 -0.964,-0.35 -2.118,-0.524 -3.429,-0.524 -1.414,0 -2.666,0.25 -3.719,0.747 -1.052,0.494 -1.938,1.155 -2.64,1.966 -0.7,0.809 -1.233,1.758 -1.582,2.819 -0.347,1.052 -0.521,2.155 -0.521,3.279 l 0,2.065 c 0,2.445 0.626,4.4 1.859,5.82 1.247,1.429 3.032,2.153 5.307,2.153 1.214,0 2.214,-0.214 2.97,-0.637 0.514,-0.286 0.95,-0.635 1.302,-1.041 l 0,1.014 c 0,0.774 -0.088,1.402 -0.261,1.867 -0.168,0.451 -0.399,0.811 -0.685,1.065 -0.285,0.256 -0.629,0.432 -1.019,0.525 -0.418,0.099 -0.887,0.148 -1.396,0.148 -0.841,0 -1.497,-0.047 -1.953,-0.135 -0.5,-0.1 -0.882,-0.146 -1.162,-0.146 -0.733,0 -1.294,0.185 -1.667,0.541 -0.377,0.363 -0.569,0.852 -0.569,1.45 0,0.811 0.438,1.5 1.354,2.076 0.33,0.127 0.844,0.234 1.577,0.332 0.711,0.095 1.527,0.144 2.42,0.144 1.052,0 2.074,-0.159 3.032,-0.47 0.967,-0.315 1.835,-0.799 2.577,-1.445 0.741,-0.645 1.34,-1.469 1.776,-2.449 0.435,-0.98 0.656,-2.159 0.656,-3.505 l 0,-11.229 c 0.002,-0.962 -0.145,-1.876 -0.433,-2.723 z m -8.728,0.539 c 0.442,-0.222 0.95,-0.333 1.505,-0.333 0.973,0 1.726,0.201 2.239,0.6 0.494,0.385 0.736,0.967 0.736,1.78 l 0,4.361 c -0.044,1.129 -0.377,1.929 -1.02,2.445 -0.662,0.53 -1.429,0.788 -2.34,0.788 -2.238,0 -3.327,-1.113 -3.327,-3.398 l 0,-2.343 c 0,-0.59 0.094,-1.147 0.278,-1.658 0.184,-0.512 0.441,-0.959 0.767,-1.339 0.322,-0.373 0.712,-0.677 1.162,-0.903 z"
       inkscape:connector-curvature="0" /></g></svg>